<svg width="24" height="24" viewBox="0 0 24 24" fill="none" xmlns="http://www.w3.org/2000/svg">
<path d="M18.6667 12C18.6667 8.3181 15.6819 5.33333 12 5.33333C8.3181 5.33333 5.33333 8.3181 5.33333 12C5.33333 15.6819 8.3181 18.6667 12 18.6667V20C7.58172 20 4 16.4183 4 12C4 7.58172 7.58172 4 12 4C16.4183 4 20 7.58172 20 12C20 16.4183 16.4183 20 12 20V18.6667C15.6819 18.6667 18.6667 15.6819 18.6667 12Z" fill="#D41100"/>
<path d="M9.52868 9.52868C9.78903 9.26833 10.211 9.26833 10.4714 9.52868L14.4714 13.5287C14.7317 13.789 14.7317 14.211 14.4714 14.4714C14.211 14.7317 13.789 14.7317 13.5287 14.4714L9.52868 10.4714C9.26833 10.211 9.26833 9.78903 9.52868 9.52868Z" fill="#D41100"/>
<path d="M14.4713 9.52868C14.7317 9.78903 14.7317 10.211 14.4713 10.4714L10.4713 14.4714C10.211 14.7317 9.78896 14.7317 9.52861 14.4714C9.26827 14.211 9.26827 13.789 9.52861 13.5287L13.5286 9.52868C13.789 9.26833 14.211 9.26833 14.4713 9.52868Z" fill="#D41100"/>
</svg>
