<svg width="24" height="24" viewBox="0 0 24 24" fill="none" xmlns="http://www.w3.org/2000/svg">
<path fill-rule="evenodd" clip-rule="evenodd" d="M12 4C16.4183 4 20 7.58172 20 12C20 16.4183 16.4183 20 12 20C7.58172 20 4 16.4183 4 12C4 7.58172 7.58172 4 12 4ZM14.4714 9.52865C14.211 9.26831 13.789 9.26833 13.5286 9.52865L12 11.0573L10.4714 9.52865C10.211 9.26833 9.78899 9.26831 9.52865 9.52865C9.26831 9.78899 9.26833 10.211 9.52865 10.4714L11.0573 12L9.52865 13.5286C9.2683 13.789 9.2683 14.211 9.52865 14.4714C9.789 14.7317 10.211 14.7317 10.4714 14.4714L12 12.9427L13.5286 14.4714C13.789 14.7317 14.211 14.7317 14.4714 14.4714C14.7317 14.211 14.7317 13.789 14.4714 13.5286L12.9427 12L14.4714 10.4714C14.7317 10.211 14.7317 9.78899 14.4714 9.52865Z" fill="#D41100"/>
</svg>
