<svg width="24" height="24" viewBox="0 0 24 24" fill="none" xmlns="http://www.w3.org/2000/svg">
<path d="M12 4C16.4183 4 20 7.58172 20 12C20 16.4183 16.4183 20 12 20C7.58172 20 4 16.4183 4 12C4 7.58172 7.58172 4 12 4ZM11.9089 10.9089C11.5073 10.909 11.1823 11.2351 11.1823 11.6367V15.6367C11.1825 16.0381 11.5074 16.3632 11.9089 16.3633H12.0911C12.4926 16.3632 12.8175 16.0381 12.8177 15.6367V11.6367C12.8177 11.2351 12.4927 10.909 12.0911 10.9089H11.9089ZM11.9974 7.63672C11.7357 7.63672 11.5334 7.7148 11.3906 7.87109C11.2518 8.02753 11.1823 8.22415 11.1823 8.46094C11.1823 8.69347 11.2518 8.88783 11.3906 9.04427C11.5334 9.19636 11.7357 9.27214 11.9974 9.27214C12.259 9.27206 12.4614 9.19642 12.6042 9.04427C12.7469 8.88786 12.8177 8.69339 12.8177 8.46094C12.8177 8.22422 12.7469 8.02751 12.6042 7.87109C12.4614 7.71472 12.259 7.63679 11.9974 7.63672Z" fill="#0177D2"/>
</svg>
