<svg width="24" height="24" viewBox="0 0 24 24" fill="none" xmlns="http://www.w3.org/2000/svg">
<path d="M18.5455 12C18.5455 8.38505 15.615 5.45455 12 5.45455C8.38505 5.45455 5.45455 8.38505 5.45455 12C5.45455 15.615 8.38505 18.5455 12 18.5455V20C7.58172 20 4 16.4183 4 12C4 7.58172 7.58172 4 12 4C16.4183 4 20 7.58172 20 12C20 16.4183 16.4183 20 12 20V18.5455C15.615 18.5455 18.5455 15.615 18.5455 12Z" fill="#0177D2"/>
<path d="M11.3901 7.87104C11.2512 8.02748 11.1818 8.2241 11.1818 8.46089C11.1818 8.69345 11.2512 8.88795 11.3901 9.0444C11.5329 9.19662 11.7352 9.27273 11.997 9.27273C12.2588 9.27273 12.4612 9.19662 12.604 9.0444C12.7468 8.88795 12.8182 8.69345 12.8182 8.46089C12.8182 8.2241 12.7468 8.02748 12.604 7.87104C12.4612 7.71459 12.2588 7.63636 11.997 7.63636C11.7352 7.63636 11.5329 7.71459 11.3901 7.87104Z" fill="#0177D2"/>
<path d="M12.8182 15.6364C12.8182 16.038 12.4926 16.3636 12.0909 16.3636H11.9091C11.5074 16.3636 11.1818 16.038 11.1818 15.6364V11.6364C11.1818 11.2347 11.5074 10.9091 11.9091 10.9091H12.0909C12.4926 10.9091 12.8182 11.2347 12.8182 11.6364V15.6364Z" fill="#0177D2"/>
</svg>