<svg width="24" height="24" viewBox="0 0 24 24" fill="none" xmlns="http://www.w3.org/2000/svg">
<path d="M18.5455 12C18.5455 8.38505 15.615 5.45455 12 5.45455C8.38505 5.45455 5.45455 8.38505 5.45455 12C5.45455 15.615 8.38505 18.5455 12 18.5455C15.615 18.5455 18.5455 15.615 18.5455 12ZM20 12C20 16.4183 16.4183 20 12 20C7.58172 20 4 16.4183 4 12C4 7.58172 7.58172 4 12 4C16.4183 4 20 7.58172 20 12Z" fill="#16A34E"/>
<path d="M13.6676 10.0313C13.9517 9.74727 14.412 9.74727 14.6961 10.0313C14.9801 10.3153 14.9801 10.7757 14.6961 11.0597L11.787 13.9688C11.5029 14.2528 11.0426 14.2528 10.7586 13.9688L9.30401 12.5142C9.01999 12.2302 9.01999 11.7698 9.30401 11.4858C9.58803 11.2018 10.0484 11.2018 10.3324 11.4858L11.2728 12.4262L13.6676 10.0313Z" fill="#16A34E"/>
</svg>
