<svg width="24" height="24" viewBox="0 0 24 24" fill="none" xmlns="http://www.w3.org/2000/svg">
<path fill-rule="evenodd" clip-rule="evenodd" d="M12 4.00006C16.4183 4.00006 20 7.58178 20 12.0001C20 16.4183 16.4183 20.0001 12 20.0001C7.58172 20.0001 4 16.4183 4 12.0001C4 7.58178 7.58172 4.00006 12 4.00006ZM14.6966 10.0313C14.4127 9.74735 13.952 9.74747 13.668 10.0313L11.2721 12.4258L10.332 11.4857C10.048 11.202 9.58731 11.2018 9.30339 11.4857C9.01969 11.7697 9.01972 12.2304 9.30339 12.5144L10.7591 13.9688C11.0431 14.2525 11.5025 14.2525 11.7865 13.9688L14.6966 11.06C14.9804 10.776 14.9803 10.3153 14.6966 10.0313Z" fill="#16A34E"/>
</svg>
