<svg width="24" height="24" viewBox="0 0 24 24" fill="none" xmlns="http://www.w3.org/2000/svg">
<path d="M10.3216 5.06041C11.0414 3.64653 12.9586 3.64653 13.6784 5.06041L19.7695 17.0272C20.4533 18.3707 19.5335 20 18.0911 20H5.90891C4.46649 20 3.54666 18.3707 4.23051 17.0272L10.3216 5.06041ZM12.3358 5.82527C12.1919 5.54247 11.8081 5.54247 11.6642 5.82527L5.57308 17.7921C5.43631 18.0608 5.62043 18.3868 5.90891 18.3868H18.0911C18.3796 18.3868 18.5637 18.0608 18.4269 17.7921L12.3358 5.82527Z" fill="#FAAF19"/>
<path d="M11.2375 13.5023V10.6342C11.2375 10.1888 11.5789 9.82763 12 9.82763C12.4212 9.82763 12.7625 10.1888 12.7625 10.6342V13.5023C12.7625 13.9477 12.4211 14.3089 12 14.3089C11.579 14.3089 11.2376 13.9477 11.2375 13.5023Z" fill="#FAAF19"/>
<path d="M11.4371 15.6527C11.7189 15.3218 12.2009 15.2949 12.5138 15.5929C12.8266 15.891 12.8521 16.4009 12.5704 16.7319L12.5622 16.7421C12.2804 17.073 11.7984 17.0992 11.4855 16.8012C11.1727 16.5031 11.1472 15.9932 11.4289 15.6622L11.4371 15.6527Z" fill="#FAAF19"/>
</svg>
