<svg width="24" height="24" viewBox="0 0 24 24" fill="none" xmlns="http://www.w3.org/2000/svg">
<path fill-rule="evenodd" clip-rule="evenodd" d="M10.3214 5.06068C11.0412 3.64681 12.9591 3.64681 13.6789 5.06068L19.7697 17.0275C20.4533 18.3709 19.5333 20.0001 18.091 20.0001H5.90933C4.46699 20.0001 3.54698 18.3709 4.23062 17.0275L10.3214 5.06068ZM12.5138 15.5929C12.201 15.2951 11.7195 15.3219 11.4377 15.6525L11.4289 15.6622C11.1473 15.9932 11.1729 16.5028 11.4855 16.8009C11.7984 17.0989 12.2808 17.0732 12.5627 16.7423L12.5705 16.7316C12.852 16.4006 12.8266 15.891 12.5138 15.5929ZM12.0002 9.82728C11.5791 9.82728 11.2376 10.1886 11.2375 10.6339V13.5021C11.2375 13.9475 11.5791 14.3087 12.0002 14.3087C12.4212 14.3087 12.7628 13.9475 12.7628 13.5021V10.6339C12.7627 10.1886 12.4212 9.82729 12.0002 9.82728Z" fill="#FAAF19"/>
</svg>
